<?xml version="1.0" encoding="UTF-8"?>
<svg width="35px" height="38px" viewBox="0 0 35 38" version="1.1" xmlns="http://www.w3.org/2000/svg" xmlns:xlink="http://www.w3.org/1999/xlink">
    <!-- Generator: Sketch 63 (92445) - https://sketch.com -->
    <title>密码@1x</title>
    <desc>Created with Sketch.</desc>
    <g id="页面-1" stroke="none" stroke-width="1" fill="none" fill-rule="evenodd">
        <g id="登录修改" transform="translate(-1327.000000, -456.000000)" fill-rule="nonzero">
            <g id="登录" transform="translate(1263.000000, 227.000000)">
                <g id="编组" transform="translate(50.000000, 142.000000)">
                    <g id="密码" transform="translate(10.000000, 84.000000)">
                        <rect id="矩形" x="0" y="0" width="42.8823529" height="42.8823529"></rect>
                        <path d="M33.5544222,17.8676471 L13.3449942,17.8676471 L10.1015568,17.8676471 L9.32793078,17.8676471 C6.64713051,17.8676471 4.46691176,19.7737705 4.46691176,22.1175429 L4.46691176,35.9523101 C4.46691176,38.2960824 6.64713051,40.2022059 9.32793078,40.2022059 L33.5544222,40.2022059 C36.2352224,40.2022059 38.4154412,38.2960824 38.4154412,35.9523101 L38.4154412,22.1211598 C38.4154412,19.7773875 36.2352224,17.8676471 33.5544222,17.8676471 Z M9.82720588,20.5477941 C11.2055913,23.1789747 12.3979021,24.9165772 13.4041383,25.7606014 C15.4864016,27.5071899 18.3165358,28.2636083 21.1042239,28.5368477 C24.0824106,28.8287592 27.2723101,27.8734939 29.8377438,25.7606014 C30.8887715,24.8949744 31.9612393,23.157372 33.0551471,20.5477941 L33.0551471,20.5477941 L33.2596563,20.5477941 C34.1315113,20.5477941 34.8419118,21.1618612 34.8419118,21.915489 L34.8419118,35.2609816 C34.8419118,36.0146094 34.1315113,36.6286765 33.2596563,36.6286765 L9.62269667,36.6286765 C8.7508416,36.6286765 8.04044118,36.0146094 8.04044118,35.2609816 L8.04044118,21.915489 C8.04044118,21.1618612 8.7508416,20.5477941 9.62269667,20.5477941 Z M29.4816176,20.5477941 C29.4313909,21.1907568 28.7296587,22.3574791 27.6858992,23.2845574 C26.7128004,24.148874 24.591097,25.0147059 22.9099808,25.0147059 C21.5969866,25.0147059 18.971166,24.5558269 17.6983723,24.0011549 C16.0482047,23.2820266 14.3857412,21.738527 14.2941176,20.5477941 L14.2941176,20.5477941 Z M21.437057,3.57352941 C27.4381065,3.57352941 32.234025,7.79350101 33.9101372,14.1622688 C34.1277633,14.9891884 33.3830024,15.7817259 32.6144483,16.015879 C31.8458942,16.250032 30.5363138,15.8371315 30.3186877,15.0102119 C28.9915073,9.96728927 26.1303428,7.58361214 21.437057,7.58361214 C16.7312389,7.58361214 13.8723622,9.88196829 12.5516249,14.7246515 C12.3267165,15.5493122 11.2133909,15.8910329 10.4469363,15.6490445 C9.68048161,15.4070561 8.74286977,14.6729947 8.96777817,13.848334 C10.6503335,7.67899026 15.4485397,3.57352941 21.437057,3.57352941 Z" id="形状" fill="#666666"></path>
                    </g>
                </g>
            </g>
        </g>
    </g>
</svg>