<?xml version="1.0" encoding="UTF-8"?>
<svg width="37px" height="37px" viewBox="0 0 37 37" version="1.1" xmlns="http://www.w3.org/2000/svg" xmlns:xlink="http://www.w3.org/1999/xlink">
    <!-- Generator: Sketch 63 (92445) - https://sketch.com -->
    <title>user@1x</title>
    <desc>Created with Sketch.</desc>
    <g id="页面-1" stroke="none" stroke-width="1" fill="none" fill-rule="evenodd">
        <g id="登录修改" transform="translate(-1326.000000, -372.000000)" fill="#666666" fill-rule="nonzero">
            <g id="登录" transform="translate(1263.000000, 227.000000)">
                <g id="编组" transform="translate(50.000000, 142.000000)">
                    <g id="user" transform="translate(10.000000, 0.000000)">
                        <path d="M21.1745725,3.57352941 C27.1254795,3.57352941 31.9496428,8.47918498 31.9496428,14.5306178 C31.9496428,19.1105466 29.1863747,23.0341772 25.2627158,24.6715557 C28.2068414,24.8253499 29.043908,25.1150014 29.043908,25.1150215 C35.6149374,26.1685976 38.1071096,34.4746505 39.1857263,37.0884862 C39.5208884,37.9015016 39.1483035,38.8372188 38.3513031,39.1840667 C37.5547736,39.5245963 36.6375636,39.1440558 36.3026584,38.3340697 C35.6149374,36.6641899 33.6356151,31.15585 30.3358491,29.1751792 C29.9842222,30.2960906 29.2177546,31.3262058 28.078324,32.1578498 C27.1546129,32.8336115 25.9843662,33.375988 24.6995446,33.719089 C23.5491417,34.0234612 22.3648587,34.1752478 21.1761657,34.1706691 C16.6231811,34.1706691 12.9291236,32.0654447 12.0149076,29.1751869 C8.71593641,31.1566698 7.26698459,36.6650488 6.58032911,38.3315304 C6.24507712,39.1417523 5.3281484,39.5231304 4.53062181,39.1840667 C3.73359684,38.8372388 3.36126652,37.901278 3.69698962,37.0884861 C4.77478446,34.4746347 6.58032911,26.013622 13.3084104,25.1149941 C14.4000459,24.917421 14.7245953,24.73209 17.0119794,24.6393537 C13.128054,22.9847008 10.3995022,19.0816857 10.3995022,14.5306178 C10.3995022,8.47918498 15.2236655,3.57352941 21.1745725,3.57352941 Z M20.9944853,7.14705882 C16.800573,7.14705882 13.4007353,10.5468965 13.4007353,14.7408088 C13.4007353,18.9347211 16.800573,22.3345588 20.9944853,22.3345588 C25.1883976,22.3345588 28.5882353,18.9347211 28.5882353,14.7408088 C28.5882353,10.5468965 25.1883976,7.14705882 20.9944853,7.14705882 Z M25.8682139,27.7746406 L16.4841409,27.7746406 C15.9713196,27.7746406 15.4632362,27.8501715 14.9598985,27.9618609 C15.1677139,29.4210554 17.7428884,30.9726547 21.1761813,30.9726547 C22.1322903,30.9726547 23.0504725,30.8553407 23.9054371,30.6263373 C24.8267793,30.3796564 25.6390754,30.0092349 26.2577829,29.5568504 C26.66314,29.2611547 27.3079217,28.6818171 27.4114358,27.9658793 L27.4114358,27.9658794 C26.9053548,27.8455267 26.3879229,27.7814047 25.86823,27.7746406 L25.8682139,27.7746406 Z" id="形状"></path>
                    </g>
                </g>
            </g>
        </g>
    </g>
</svg>